<?xml version="1.0" ?><!DOCTYPE svg  PUBLIC '-//W3C//DTD SVG 1.1//EN'  'http://www.w3.org/Graphics/SVG/1.1/DTD/svg11.dtd'><svg height="512px" style="enable-background:new 0 0 512 512;" version="1.1" viewBox="0 0 512 512" width="512px" xml:space="preserve" xmlns="http://www.w3.org/2000/svg" xmlns:xlink="http://www.w3.org/1999/xlink"><g id="close_door_escape_exit_logout_escaping_business_man"><g><g><g><path d="M214.03,0v87.202c-6.289-2.442-13.004-3.713-19.776-3.714      c-35.907-0.003-54.946,29.94-54.946,54.386c-0.131,10.503,2.727,20.985,8.466,30.092c-4.729,0.985-10.286,3.189-15.833,7.617      l-98.938,82.534c-13.342,11.93-14.376,27.924-3.073,40.954l0.021,0.023l0.021,0.023c10.127,11.381,26.972,10.708,37.689,2.418      l48.189-43.457l-4.457,28.242l-38.074,69.686l-56.887,30.542C2.63,394.313-4.826,414.48,6.233,430.781      c9.733,14.346,27.392,17.764,42.453,8.41l75.89-46.092l24.099-44.562l37.794,30.606l-2.732,77.713      c0.521,17.717,16.08,29.095,30.195,29.203c16.982,0,27.82-10.754,30.354-27.078h71.235V512l195.586-55.154V0H214.03z       M215.657,326.032l-26.279-23.519l5.488-27.852l20.791,28.894V326.032z M217.821,216.563l-11.951-21.244      c0,0-4.852-2.879-6.074-3.6c6.293,0.03,12.522-1.589,18.025-4.717V216.563z" style="fill:#37484F;"/></g><path d="M194.433,96.262c23.284,0.119,42.065,19.153,41.945,42.512     c-0.119,23.36-19.091,42.199-42.379,42.079c-23.282-0.119-42.064-19.152-41.946-42.512     C152.174,114.982,171.15,96.142,194.433,96.262z" style="fill:#F4A892;"/><polygon points="159.371,261.91 176.995,213.607 173.657,268.26 165.194,280.594    " style="fill:#8BBA16;"/><polygon points="178.588,189.041 183.391,191.72 180.268,197.395    " style="fill:#8BBA16;"/><g><path d="M169.623,184.077c-8.54-4.412-19.272-6.918-29.664,1.373L48.28,261.923l20.18,21.794      l65.531-59.128l-9.744,61.758l37.764,10.283l-10.886-34.919l21.99-60.265L169.623,184.077z" style="fill:#E2F3FB;"/><path d="M41.379,267.68c-5.529,5.156-10.305,13.314-1.898,23.006c5.772,6.484,15.401,4.584,20.237,0.918      l8.741-7.887l-20.18-21.794L41.379,267.68z" style="fill:#F4A892;"/><g><path d="M234.834,267.404l-38.256-68c-0.61-0.361-4.805-2.854-6.404-3.798l-4.786,8.696l-4.068,66.607       l-17.907,26.102l15.12,4.117l10.254-52.037l33.909,47.119c0,0,34.199,1.62,52.882,2.5l3.277-29.495L234.834,267.404z" style="fill:#E2F3FB;"/><path d="M302.977,284.735c0.793-7.995-6.811-14.136-12.709-15.05l-11.412-0.47l-3.277,29.495       c6.965,0.328,11.777,0.554,11.852,0.554C299.027,299.265,302.66,290.102,302.977,284.735z" style="fill:#F4A892;"/></g></g><path d="M234.604,379.913c-0.107,2.061-2.554,74.805-2.554,74.805     c-1.022,11.718-7.464,18.325-18.147,18.618c-8.15-0.095-17.102-6.391-17.467-16.447l2.948-83.646l-46.656-37.782l13.145-2.832     l-1.64-7.659l-19.533,4.208c-0.021,0.038-29.65,54.828-29.65,54.828l-73.004,44.34c-6.089,3.785-17.722,5.918-25.49-4.979     c-1.662-2.318-9.112-14.427,6.628-26.045l59.46-31.885l39.145-71.642l60.729,16.534l46.576,41.684     C235.747,357.814,235.167,369.049,234.604,379.913z" style="fill:#9B9C9E;"/><path d="M320.408,446.42h-80.272c0,0,2.158-63.996,2.267-66.102c0.629-12.146,1.342-25.914-8.147-34.185     l-7.526-6.735v-35.151c0,0,60.332,2.853,60.701,2.853c15.115,0,22.684-11.259,23.332-21.748     c1.146-12.065-9.389-22.037-19.596-23.453l-51.667-2.143l-12.77-22.697v-60.363c8.914-7.653,17.318-20.065,17.511-37.517     c0.161-14.535-5.974-28.869-17.511-38.745V12.724H483.43L320.408,58.695V446.42z" style="fill:#9B9C9E;"/><polygon points="498.406,447.207 328.219,495.2 328.219,64.632 498.406,16.639    " style="fill:#8C6D63;"/></g><g><path d="M349.859,300.105c7.207,0,10.666,0,10.666,0c1.52,4.229,4.09,7.281,7.828,7.281     c6.539,0,9.518-9.319,9.518-17.979c0-8.658-2.979-17.978-9.518-17.978c-3.738,0-6.309,3.052-7.828,7.28c0,0-2.867,0-10.596,0     C341.869,285.307,343.783,294.322,349.859,300.105z" style="fill:#37484F;"/><path d="M368.354,280.125c0.801,1.612,1.707,4.855,1.707,9.283c0,4.43-0.906,7.672-1.707,9.283     c-0.799-1.611-1.705-4.854-1.705-9.283C366.648,284.98,367.555,281.737,368.354,280.125z" style="fill:#F4E500;"/><path d="M353.256,286.547h5.695c-0.072,0.953-0.072,4.771,0,5.724h-5.594     C352.438,290.865,351.711,288.763,353.256,286.547z" style="fill:#F4E500;"/></g></g></g><g id="Capa_1"/></svg>